<!-- Generated by IcoMoon.io -->
<svg version="1.1" xmlns="http://www.w3.org/2000/svg" width="32" height="32" viewBox="0 0 32 32">
<title>Brakes</title>
<path d="M5.867 6.667c-1.031 0-1.867 0.835-1.867 1.867v0.933c0 1.031 0.835 1.867 1.867 1.867h1.867c1.031 0 1.867-0.835 1.867-1.867v-0.933c0-1.031-0.835-1.867-1.867-1.867h-1.867zM13.333 6.667c-1.031 0-1.867 0.835-1.867 1.867v0.933c0 1.031 0.835 1.867 1.867 1.867h1.867c1.031 0 1.867-0.835 1.867-1.867v-0.933c0-1.031-0.835-1.867-1.867-1.867h-1.867zM24.533 6.667c-1.031 0-1.867 0.835-1.867 1.867v0.933c0 1.031 0.835 1.867 1.867 1.867h1.867c1.031 0 1.867-0.835 1.867-1.867v-0.933c0-1.031-0.835-1.867-1.867-1.867h-1.867zM6.785 12.254c-0.515 0.008-0.926 0.431-0.919 0.946v1.185c-0.577 0.333-0.933 0.949-0.933 1.615 0.001 0.666 0.357 1.28 0.933 1.613v1.187c-0.005 0.337 0.172 0.65 0.463 0.819s0.65 0.17 0.941 0c0.291-0.17 0.468-0.483 0.463-0.819v-1.185c0.282-0.164 0.517-0.399 0.68-0.682h4.24c0.163 0.283 0.398 0.518 0.68 0.682v1.185c-0.005 0.337 0.172 0.65 0.463 0.819s0.65 0.17 0.941 0c0.291-0.17 0.468-0.483 0.463-0.819v-1.187c0.281-0.164 0.515-0.398 0.678-0.68h7.973c0.164 0.282 0.399 0.517 0.682 0.68v1.187c-0.005 0.337 0.172 0.65 0.463 0.819s0.65 0.17 0.941 0c0.291-0.17 0.468-0.483 0.463-0.819v-1.185c0.577-0.333 0.933-0.949 0.933-1.615-0.001-0.666-0.357-1.28-0.933-1.613v-1.187c0.003-0.252-0.095-0.495-0.274-0.673s-0.422-0.277-0.674-0.273c-0.515 0.008-0.926 0.431-0.919 0.946v1.185c-0.282 0.164-0.517 0.399-0.68 0.682h-7.973c-0.163-0.283-0.398-0.518-0.68-0.682v-1.185c0.003-0.252-0.095-0.495-0.274-0.673s-0.422-0.277-0.674-0.273c-0.515 0.008-0.926 0.431-0.919 0.946v1.187c-0.281 0.164-0.515 0.398-0.678 0.68h-4.24c-0.164-0.282-0.399-0.517-0.682-0.68v-1.187c0.003-0.252-0.095-0.495-0.274-0.673s-0.422-0.277-0.674-0.273zM5.867 20.667c-1.031 0-1.867 0.835-1.867 1.867v0.933c0 1.031 0.835 1.867 1.867 1.867h1.867c1.031 0 1.867-0.835 1.867-1.867v-0.933c0-1.031-0.835-1.867-1.867-1.867h-1.867zM13.333 20.667c-1.031 0-1.867 0.835-1.867 1.867v0.933c0 1.031 0.835 1.867 1.867 1.867h1.867c1.031 0 1.867-0.835 1.867-1.867v-0.933c0-1.031-0.835-1.867-1.867-1.867h-1.867zM24.533 20.667c-1.031 0-1.867 0.835-1.867 1.867v0.933c0 1.031 0.835 1.867 1.867 1.867h1.867c1.031 0 1.867-0.835 1.867-1.867v-0.933c0-1.031-0.835-1.867-1.867-1.867h-1.867z"></path>
</svg>
