<?xml version="1.0" ?><svg id="Icons" style="enable-background:new 0 0 32 32;" version="1.1" viewBox="0 0 32 32" xml:space="preserve" xmlns="http://www.w3.org/2000/svg" xmlns:xlink="http://www.w3.org/1999/xlink"><style type="text/css">
	.st0{fill:none;stroke:#000000;stroke-width:2;stroke-linecap:round;stroke-linejoin:round;stroke-miterlimit:10;}
</style><g><path d="M16.3,11H10c-0.6,0-1-0.4-1-1c0-1.3-0.6-2.4-1.6-3.2C7.1,6.6,7,6.3,7,6c0-2.8,2.3-5,5-5h12c0.6,0,1,0.4,1,1v4   c0,0.6-0.4,1-1,1h-2.3c-2,0-3.9,1.4-4.5,3.3C17.1,10.7,16.7,11,16.3,11z"/></g><g><path d="M24,14c-0.2,0-0.3,0-0.4-0.1l-0.3-0.2c-2.6-1.3-4.5-3.7-5.2-6.5c-0.1-0.5,0.2-1.1,0.7-1.2c0.5-0.1,1.1,0.2,1.2,0.7   c0.6,2.3,2.1,4.2,4.2,5.2l0.3,0.2c0.5,0.2,0.7,0.8,0.4,1.3C24.7,13.8,24.4,14,24,14z"/></g><path d="M21.2,19.7l-1.6-1.5c-1.1-1-1.7-2.5-1.7-4c0-1.6-0.4-3.2-1.1-4.7C16.7,9.2,16.4,9,16,9h-6C9.6,9,9.2,9.3,9.1,9.7l-0.3,0.9  c-2.5,6.8-2.3,14.2,0.3,20.8C9.2,31.8,9.6,32,10,32h12c0.5,0,0.9-0.4,1-0.9l0.6-4.5C23.9,24.1,23,21.6,21.2,19.7z M16,14.2  c0,2,0.8,4,2.3,5.4l0.4,0.4h-3.5c-0.8-2.2-1.2-4.5-1.2-6.8V11h1.4C15.8,12,16,13.1,16,14.2z M9,20c0.1-3,0.6-5.9,1.6-8.8l0.1-0.2H12  v2.2c0,2.3,0.4,4.6,1.1,6.8H9z M18.6,27.8C18.5,27.9,18.2,28,18,28c-0.3,0-0.6-0.1-0.8-0.4c-1.4-1.7-2.6-3.6-3.4-5.6H16  c0.7,1.6,1.7,3,2.8,4.4C19.1,26.8,19.1,27.4,18.6,27.8z"/></svg>