<?xml version="1.0" ?><svg viewBox="0 0 64 64" xmlns="http://www.w3.org/2000/svg"><title/><g data-name="23" id="_23"><path d="M60,7H4A1,1,0,0,0,3,8v3a1,1,0,0,0,1,1H29V39.13a2.83,2.83,0,0,0-2,2.68V58.19A2.81,2.81,0,0,0,29.81,61h4.38A2.81,2.81,0,0,0,37,58.19V41.81a2.83,2.83,0,0,0-2-2.68V12H60a1,1,0,0,0,1-1V8A1,1,0,0,0,60,7ZM35,58.19a.82.82,0,0,1-.81.81H29.81a.82.82,0,0,1-.81-.81V41.81a.82.82,0,0,1,.81-.81h4.38a.82.82,0,0,1,.81.81ZM33,39H31V12h2ZM59,10H5V9H59Z"/><path d="M4,6H60a1,1,0,0,0,0-2H4A1,1,0,0,0,4,6Z"/><path d="M33,42a1,1,0,0,0-1,1v7a1,1,0,0,0,2,0V43A1,1,0,0,0,33,42Z"/><path d="M33,52a1,1,0,0,0-1,1v3a1,1,0,0,0,2,0V53A1,1,0,0,0,33,52Z"/></g></svg>