<?xml version="1.0" ?><svg data-name="Layer 1" id="Layer_1" viewBox="0 0 512 512" xmlns="http://www.w3.org/2000/svg"><title/><path d="M423.72,351.61a191.93,191.93,0,0,0,25.42-95.45v-.23a191.83,191.83,0,0,0-25.71-96.18,2.1,2.1,0,0,0-.13-.26c-.07-.13-.16-.25-.24-.38A194.49,194.49,0,0,0,353,89c-.13-.09-.26-.18-.4-.26l-.27-.14a192.78,192.78,0,0,0-191.85-.42,8.65,8.65,0,0,0-1,.49,8,8,0,0,0-1,.69A194.45,194.45,0,0,0,89.7,158.08a7.57,7.57,0,0,0-.93,1.29,7.74,7.74,0,0,0-.63,1.38A191.91,191.91,0,0,0,63,254.32a8.18,8.18,0,0,0,0,3.22A191.82,191.82,0,0,0,88,350.8a7.62,7.62,0,0,0,1.86,3.2,194.35,194.35,0,0,0,68,68.08,7.59,7.59,0,0,0,1.52,1.15,8,8,0,0,0,1.68.72,192,192,0,0,0,93.26,25,8.23,8.23,0,0,0,3.23,0,191.79,191.79,0,0,0,93.63-25.08,8,8,0,0,0,1.34-.6,8.11,8.11,0,0,0,1.29-.92,194.58,194.58,0,0,0,68.72-68.72,7.51,7.51,0,0,0,.71-1A8.65,8.65,0,0,0,423.72,351.61Zm-72.44,53.56-5.09-8.82a8,8,0,0,0-13.86,8l5.09,8.82a175.7,175.7,0,0,1-73.49,19.65V422.64a8,8,0,0,0-16,0v10.17a175.92,175.92,0,0,1-73.45-19.76l5.07-8.77a8,8,0,1,0-13.86-8L160.64,405a178.56,178.56,0,0,1-53.74-53.79l8.75-5.05a8,8,0,1,0-8-13.86l-8.76,5.06a175.76,175.76,0,0,1-19.7-73.46H89.36a8,8,0,1,0,0-16H79.19a175.85,175.85,0,0,1,19.7-73.48l8.83,5.1a8,8,0,0,0,8-13.86l-8.81-5.09a178.56,178.56,0,0,1,53.79-53.81l5.11,8.86a8,8,0,0,0,6.94,4,8,8,0,0,0,6.92-12l-5.12-8.87a175.72,175.72,0,0,1,73.52-19.73V89.36a8,8,0,1,0,16,0V79.05a175.81,175.81,0,0,1,73.54,19.73l-5.16,8.94a8,8,0,1,0,13.86,8l5.15-8.92a178.68,178.68,0,0,1,53.81,53.86l-8.92,5.15a8,8,0,0,0,8,13.86l8.93-5.16A175.9,175.9,0,0,1,433,248.07H422.64a8,8,0,0,0,0,16H433a175.88,175.88,0,0,1-19.79,73.51l-8.88-5.13a8,8,0,1,0-8,13.86l8.85,5.11A178.56,178.56,0,0,1,351.28,405.17Zm-95.21-296c-80.95,0-146.8,65.85-146.8,146.8s65.85,146.8,146.8,146.8,146.8-65.85,146.8-146.8S337,109.13,256.07,109.13Zm0,277.6c-72.13,0-130.8-58.68-130.8-130.8a130.8,130.8,0,0,1,261.6,0C386.87,328.05,328.2,386.73,256.07,386.73Zm0-157.3a26.51,26.51,0,1,0,26.51,26.51A26.54,26.54,0,0,0,256.07,229.43Zm0,37a10.51,10.51,0,1,1,10.51-10.51A10.53,10.53,0,0,1,256.07,266.45Zm103.48,26.23a109.79,109.79,0,0,0,0-73.37c-.72-2-1.51-4-2.35-6a109.14,109.14,0,0,0-17.65-28.58h0v0A109.6,109.6,0,0,0,246,146.6c-3.33.3-6.64.75-9.91,1.35h0a110.16,110.16,0,0,0-63.6,36.73,109,109,0,0,0-20,34.54h0v0a109.87,109.87,0,0,0,0,73.51c.57,1.59,1.16,3.16,1.8,4.71a108.8,108.8,0,0,0,18.23,29.84h0A109.49,109.49,0,0,0,256,365.86l2.62,0A110.22,110.22,0,0,0,359.55,292.7h0Zm-18.14,2.19c-.09.21-.18.42-.28.62-.52,1.13-1.07,2.24-1.63,3.34l-.35.67q-1.78,3.4-3.86,6.65l-.39.62c-.68,1.06-1.38,2.1-2.11,3.12-.11.17-.23.33-.35.49-.31.44-.64.86-1,1.29l-52.9-30.54a8,8,0,0,0-12,6.92v61.19c-.56.07-1.11.14-1.67.19l-.39,0c-1.32.12-2.65.21-4,.28h-.41q-4.06.18-8.13,0l-.4,0c-1.33-.06-2.66-.15-4-.26l-.39,0c-.56-.05-1.11-.13-1.66-.19V288.05a8,8,0,0,0-12-6.92l-53,30.6c-.31-.42-.64-.84-1-1.28l-.36-.5c-.73-1-1.42-2.06-2.1-3.11l-.41-.63c-.69-1.08-1.36-2.18-2-3.28h0c-.64-1.1-1.26-2.23-1.85-3.36l-.35-.66c-.57-1.11-1.12-2.22-1.64-3.35l-.27-.6c-.22-.46-.41-.93-.61-1.4l53-30.62a8,8,0,0,0,0-13.86l-53-30.62c.2-.46.39-.93.6-1.39.09-.2.19-.41.28-.62.53-1.12,1.07-2.23,1.64-3.33l.36-.68c.58-1.12,1.19-2.23,1.82-3.33l0,0c.64-1.1,1.31-2.19,2-3.27l.41-.64c.68-1,1.38-2.08,2.1-3.1.12-.17.25-.34.37-.52.31-.43.63-.85.95-1.27l53,30.6a8,8,0,0,0,12-6.93v-61.2l1.43-.16.71-.07c1.21-.1,2.43-.18,3.65-.24l.89,0c1.14,0,2.28-.07,3.42-.08h.47c1.22,0,2.44,0,3.66.08l.91,0c1.23.06,2.45.14,3.67.25l.69.07,1.51.17v61.18a8,8,0,0,0,12,6.93l52.9-30.54c.32.42.64.84.95,1.27.12.17.25.34.37.52.72,1,1.42,2,2.09,3.1l.41.64c.69,1.08,1.36,2.17,2,3.28h0c.64,1.11,1.25,2.23,1.85,3.36l.34.66q.86,1.67,1.65,3.36l.27.59c.21.46.4.94.61,1.41l-52.93,30.55a8,8,0,0,0,0,13.86L342,293.48C341.82,294,341.62,294.41,341.41,294.87Zm-20.73,29A94.22,94.22,0,0,1,282.58,346V301.91ZM229.57,346A94.29,94.29,0,0,1,191.37,324l38.2-22Zm-67.43-90a93.77,93.77,0,0,1,2.64-22.09L203.05,256l-38.27,22.09A93.77,93.77,0,0,1,162.14,256Zm29.24-68A94.25,94.25,0,0,1,229.57,166v44.13Zm91.2-22a94.25,94.25,0,0,1,38.09,22.09l-38.09,22Zm26.51,90,38.14-22a93.5,93.5,0,0,1,0,44Z"/></svg>