<?xml version="1.0" encoding="iso-8859-1"?>
<!-- Generator: Adobe Illustrator 16.0.0, SVG Export Plug-In . SVG Version: 6.00 Build 0)  -->
<!DOCTYPE svg PUBLIC "-//W3C//DTD SVG 1.1//EN" "http://www.w3.org/Graphics/SVG/1.1/DTD/svg11.dtd">
<svg version="1.1" id="Capa_1" xmlns="http://www.w3.org/2000/svg" xmlns:xlink="http://www.w3.org/1999/xlink" x="0px" y="0px"
	 width="594.672px" height="594.672px" viewBox="0 0 594.672 594.672" style="enable-background:new 0 0 594.672 594.672;"
	 xml:space="preserve">
<g>
	<path d="M297.336,551.359c-140.304,0-254.046-113.719-254.046-254.023c0-140.304,113.742-254.046,254.046-254.046
		c140.305,0,254.023,113.742,254.023,254.046C551.359,437.641,437.641,551.359,297.336,551.359L297.336,551.359z M297.336,0
		C133.131,0,0,133.113,0,297.336c0,164.219,133.131,297.336,297.336,297.336c164.219,0,297.336-133.117,297.336-297.336
		C594.672,133.113,461.555,0,297.336,0L297.336,0z"/>
	<path d="M297.336,375.983c-43.431,0-78.657-35.217-78.657-78.647s35.226-78.657,78.657-78.657s78.647,35.226,78.647,78.657
		S340.767,375.983,297.336,375.983L297.336,375.983z M514.598,255.15c-3.998-19.948-10.566-38.983-19.498-56.605
		c-11.367-21.788-31.81-6.501-31.81-6.501l-0.055-0.223c-30.665,23.065-64.328,30.375-87.915,15.174
		c-22.379-14.451-30.138-45.471-23.741-80.583l-0.128,0.009c0,0,0.118-0.418,0.255-1.013c0.227-1.181,0.509-2.38,0.781-3.562
		c2.107-11.148,4.562-39.024-22.16-42.472c-10.84-1.622-21.889-2.503-33.164-2.503c-14.61,0-28.856,1.572-42.704,4.27
		c-23.896,6.937-13.556,33.809-13.556,33.809l-0.291,0.073c10.467,39.674,3.761,75.999-21.002,91.972
		c-21.502,13.842-51.349,9.231-79.643-9.109c-0.036,0-0.045,0-0.063-0.018c-26.554-15.36-38.006-3.089-41.664,2.798
		c-8.486,17.204-14.755,35.671-18.589,55.006c-1.686,19.307,27.38,14.578,27.38,14.578s0.054,0.141,0.077,0.168
		c35.085-6.083,66,1.89,80.265,24.341c20.357,32.096-0.232,82.368-46.038,118.42l0.068,0.063c0,0-22.451,16.728-8.032,34.8
		c17.649,19.389,38.797,35.398,62.252,47.528c7.482,2.607,27.535,6.414,37.62-22.425c0.091-0.182,0.146-0.254,0.2-0.436
		c11.748-43.112,38.57-73.287,69.925-73.323c30.429-0.036,56.587,28.384,68.861,69.416l0.064-0.063c0,0,9.031,33.663,30.146,25.096
		c1.653-0.882,3.325-1.663,4.934-2.581c0.019,0,0.019-0.027,0.027-0.027c0.063-0.036,0.109-0.063,0.2-0.127
		c20.07-11.539,38.143-26.167,53.634-43.194c13.311-17.536-9.749-36.262-9.749-36.262l0.055-0.063
		c-44.403-35.907-64.092-85.208-44.03-116.831c14.465-22.751,46.038-30.565,81.69-24.014c-0.018-0.027-0.081-0.241-0.081-0.241
		S519.268,276.679,514.598,255.15L514.598,255.15z"/>
	<path d="M297.336,258.008c21.715,0,39.323,17.608,39.323,39.328c0,21.715-17.608,39.323-39.323,39.323
		c-21.725,0-39.333-17.608-39.333-39.323C258.003,275.616,275.611,258.008,297.336,258.008L297.336,258.008z"/>
</g>
<g>
</g>
<g>
</g>
<g>
</g>
<g>
</g>
<g>
</g>
<g>
</g>
<g>
</g>
<g>
</g>
<g>
</g>
<g>
</g>
<g>
</g>
<g>
</g>
<g>
</g>
<g>
</g>
<g>
</g>
</svg>
