<?xml version="1.0" encoding="UTF-8" standalone="no"?>
<!-- Created with Inkscape (http://www.inkscape.org/) -->

<svg
   width="64pt"
   height="64pt"
   viewBox="0 0 22.577778 22.577778"
   version="1.1"
   id="svg831"
   inkscape:version="1.1.1 (3bf5ae0d25, 2021-09-20)"
   sodipodi:docname="TEMPLATE.svg"
   inkscape:export-filename="C:\Users\User\Desktop\CARLOS PROJECT\4. APRIL 2\Export\Solid\26 - Demolish.png"
   inkscape:export-xdpi="576"
   inkscape:export-ydpi="576"
   xmlns:inkscape="http://www.inkscape.org/namespaces/inkscape"
   xmlns:sodipodi="http://sodipodi.sourceforge.net/DTD/sodipodi-0.dtd"
   xmlns="http://www.w3.org/2000/svg"
   xmlns:svg="http://www.w3.org/2000/svg"
   xmlns:rdf="http://www.w3.org/1999/02/22-rdf-syntax-ns#"
   xmlns:cc="http://creativecommons.org/ns#"
   xmlns:dc="http://purl.org/dc/elements/1.1/">
  <defs
     id="defs825">
    <pattern
       id="EMFhbasepattern"
       patternUnits="userSpaceOnUse"
       width="6"
       height="6"
       x="0"
       y="0" />
    <pattern
       id="EMFhbasepattern-9"
       patternUnits="userSpaceOnUse"
       width="6"
       height="6"
       x="0"
       y="0" />
    <pattern
       id="EMFhbasepattern-0"
       patternUnits="userSpaceOnUse"
       width="6"
       height="6"
       x="0"
       y="0" />
    <pattern
       id="EMFhbasepattern-7"
       patternUnits="userSpaceOnUse"
       width="6"
       height="6"
       x="0"
       y="0" />
    <pattern
       id="EMFhbasepattern-2"
       patternUnits="userSpaceOnUse"
       width="6"
       height="6"
       x="0"
       y="0" />
    <pattern
       id="EMFhbasepattern-98"
       patternUnits="userSpaceOnUse"
       width="6"
       height="6"
       x="0"
       y="0" />
    <pattern
       id="EMFhbasepattern-6"
       patternUnits="userSpaceOnUse"
       width="6"
       height="6"
       x="0"
       y="0" />
    <pattern
       id="EMFhbasepattern-01"
       patternUnits="userSpaceOnUse"
       width="6"
       height="6"
       x="0"
       y="0" />
    <pattern
       id="EMFhbasepattern-07"
       patternUnits="userSpaceOnUse"
       width="6"
       height="6"
       x="0"
       y="0" />
    <pattern
       id="EMFhbasepattern-8"
       patternUnits="userSpaceOnUse"
       width="6"
       height="6"
       x="0"
       y="0" />
    <pattern
       id="EMFhbasepattern-4"
       patternUnits="userSpaceOnUse"
       width="6"
       height="6"
       x="0"
       y="0" />
    <pattern
       id="EMFhbasepattern-40"
       patternUnits="userSpaceOnUse"
       width="6"
       height="6"
       x="0"
       y="0" />
    <pattern
       id="EMFhbasepattern-08"
       patternUnits="userSpaceOnUse"
       width="6"
       height="6"
       x="0"
       y="0" />
    <pattern
       id="EMFhbasepattern-04"
       patternUnits="userSpaceOnUse"
       width="6"
       height="6"
       x="0"
       y="0" />
    <pattern
       id="EMFhbasepattern-014"
       patternUnits="userSpaceOnUse"
       width="6"
       height="6"
       x="0"
       y="0" />
    <pattern
       id="EMFhbasepattern-27"
       patternUnits="userSpaceOnUse"
       width="6"
       height="6"
       x="0"
       y="0" />
    <pattern
       id="EMFhbasepattern-09"
       patternUnits="userSpaceOnUse"
       width="6"
       height="6"
       x="0"
       y="0" />
    <pattern
       id="EMFhbasepattern-5"
       patternUnits="userSpaceOnUse"
       width="6"
       height="6"
       x="0"
       y="0" />
    <pattern
       id="EMFhbasepattern-018"
       patternUnits="userSpaceOnUse"
       width="6"
       height="6"
       x="0"
       y="0" />
  </defs>
  <sodipodi:namedview
     id="base"
     pagecolor="#ffffff"
     bordercolor="#666666"
     borderopacity="1.0"
     inkscape:pageopacity="0.0"
     inkscape:pageshadow="2"
     inkscape:zoom="4.5878907"
     inkscape:cx="54.709238"
     inkscape:cy="66.8063"
     inkscape:document-units="pt"
     inkscape:current-layer="layer1"
     showgrid="false"
     units="pt"
     inkscape:window-width="1920"
     inkscape:window-height="1001"
     inkscape:window-x="-9"
     inkscape:window-y="-9"
     inkscape:window-maximized="1"
     inkscape:pagecheckerboard="true"
     inkscape:showpageshadow="false"
     inkscape:object-paths="true"
     inkscape:snap-intersection-paths="true"
     inkscape:snap-smooth-nodes="true"
     inkscape:snap-midpoints="true"
     showguides="true"
     inkscape:snap-bbox="true"
     inkscape:bbox-nodes="true"
     inkscape:snap-nodes="false"
     inkscape:snap-global="true">
    <inkscape:grid
       type="xygrid"
       id="grid1378" />
    <sodipodi:guide
       position="0.97013831,21.607643"
       orientation="78.000048,0"
       id="guide1380"
       inkscape:locked="false" />
    <sodipodi:guide
       position="0.97013831,0.97013129"
       orientation="0,78.000005"
       id="guide1382"
       inkscape:locked="false" />
    <sodipodi:guide
       position="21.607639,0.97013129"
       orientation="-78.000048,0"
       id="guide1384"
       inkscape:locked="false" />
    <sodipodi:guide
       position="21.607639,21.607643"
       orientation="0,-78.000005"
       id="guide1386"
       inkscape:locked="false" />
  </sodipodi:namedview>
  <metadata
     id="metadata828">
    <rdf:RDF>
      <cc:Work
         rdf:about="">
        <dc:format>image/svg+xml</dc:format>
        <dc:type
           rdf:resource="http://purl.org/dc/dcmitype/StillImage" />
      </cc:Work>
    </rdf:RDF>
  </metadata>
  <g
     inkscape:label="Icon"
     inkscape:groupmode="layer"
     id="layer1"
     transform="translate(0,-274.42223)">
    <path
       id="path37352"
       style="color:#000000;display:inline;fill:#000000;stroke-width:1;stroke-linecap:round;stroke-linejoin:round;-inkscape-stroke:none"
       d="m 4.6326782,275.39391 c -0.7313459,0 -1.3313719,0.59741 -1.3313719,1.32876 v 13.31502 c 0,0.58446 0.3795688,1.08552 0.9088175,1.26247 0.219241,0.0488 0.6180932,0.0167 0.9218203,0.0162 v -0.6605 c -0.306763,-0.27494 -0.4992645,-0.67575 -0.4992645,-1.11748 10e-6,-0.82325 0.6732326,-1.49845 1.4964935,-1.49845 0.8232596,0 1.4990836,0.6752 1.4990936,1.49845 0,0.44159 -0.1929171,0.8411 -0.4992646,1.11553 v 0.6605 l 2.6607944,-0.004 v -0.65788 c -0.3056494,-0.27489 -0.4986125,-0.67449 -0.4986144,-1.1149 1.12e-5,-0.82325 0.6758327,-1.49844 1.4990939,-1.49844 0.823259,0 1.496482,0.67519 1.496493,1.49844 -2e-6,0.4416 -0.192918,0.84111 -0.499264,1.11554 v 0.65464 c 0.315043,0 0.878105,10e-4 0.963423,-0.0234 0.507983,-0.18842 0.867212,-0.67873 0.867212,-1.24815 v -13.31437 c 2e-6,-0.73134 -0.600676,-1.32941 -1.332021,-1.32941 z m 0.9978791,1.32876 h 5.6583317 c 0.547524,0 0.997224,0.45296 0.997229,1.00048 v 2.99494 c -5e-6,0.54753 -0.449705,0.99722 -0.997229,0.99722 H 5.6305573 c -0.5475248,0 -0.9978754,-0.44969 -0.9978791,-0.99722 v -2.99494 c 3.7e-6,-0.54752 0.4503543,-1.00048 0.9978791,-1.00048 z m 0,0.66634 c -0.1877624,0 -0.3315416,0.14638 -0.331543,0.33414 v 2.99494 c 1.4e-6,0.18777 0.1437806,0.33414 0.331543,0.33414 h 5.6583317 c 0.187762,0 0.331541,-0.14637 0.331542,-0.33414 v -2.99494 c -10e-7,-0.18776 -0.14378,-0.33414 -0.331542,-0.33414 z m 2.7466048,0.73915 c 0.1584716,0.0925 0.2122621,0.29568 0.1202651,0.45441 l -0.4147534,0.72029 c -0.091549,0.15941 -0.2949998,0.21442 -0.4544089,0.1229 -0.1594152,-0.0916 -0.2144254,-0.295 -0.1228666,-0.45441 l 0.4173542,-0.72029 c 0.1248768,-0.17844 0.3006145,-0.19673 0.4544096,-0.1229 z m 0.9140182,0.8867 c 0.1598053,0.0916 0.2148689,0.29552 0.1228666,0.45507 l -0.4173542,0.71964 c -0.091566,0.15981 -0.2955043,0.21487 -0.4550586,0.12291 -0.1584716,-0.0925 -0.2122621,-0.29569 -0.1202651,-0.45441 l 0.4154034,-0.71965 c 0.1082148,-0.17066 0.2897312,-0.19748 0.4544089,-0.12353 z m -0.8301573,3.3668 c 1.558558,0 2.827862,1.2719 2.827866,2.83046 -4e-6,1.55856 -1.269308,2.82786 -2.827866,2.82786 -1.5585581,0 -2.8304607,-1.2693 -2.8304657,-2.82786 5e-6,-1.55856 1.2719076,-2.83046 2.8304657,-2.83046 z m 7.154824,0.33413 c -0.182809,7.1e-4 -0.330829,0.14873 -0.331543,0.33155 v 1.33657 h 0.665687 v -1.33657 c -7.17e-4,-0.18382 -0.150319,-0.33226 -0.334144,-0.33155 z m 2.663394,0 c -0.183824,-7.3e-4 -0.333426,0.14773 -0.334142,0.33155 v 1.33657 h 0.665685 v -1.33657 c -6.98e-4,-0.18282 -0.148732,-0.33083 -0.331543,-0.33155 z m -9.818218,0.33155 c -1.1987958,0 -2.1647761,0.96598 -2.1647797,2.16478 2.6e-6,0.79545 0.4252096,1.48702 1.0615871,1.86249 v -1.28781 c 0,-0.24902 0.090709,-0.50203 0.2723851,-0.7177 0.1816767,-0.21568 0.477871,-0.38289 0.8308075,-0.38289 0.3529363,0 0.6458809,0.16721 0.8275568,0.38289 0.181675,0.21567 0.2730355,0.46868 0.2730355,0.7177 v 1.28847 c 0.6364827,-0.37527 1.0615857,-1.06707 1.0615867,-1.86315 -2e-6,-1.1988 -0.963383,-2.16478 -2.162179,-2.16478 z m 1.995108,8.9705 v 1.51601 c -3e-6,0.63945 0.524854,1.16429 1.1643,1.16429 h 3.162009 c 0.639444,0 1.167553,-0.52484 1.167551,-1.16429 v -3.55531 c 0.384723,-0.13883 0.663085,-0.50841 0.663085,-0.93872 v -3.32908 c -4e-6,-0.33824 -0.258878,-0.62291 -0.587675,-0.66114 h -0.817156 c -0.328926,0.0385 -0.590274,0.32309 -0.590276,0.66114 v 3.32908 c 0,0.43124 0.280143,0.80125 0.666335,0.93936 v 3.55467 c 2e-6,0.27967 -0.222188,0.49861 -0.501864,0.49861 h -3.162009 c -0.279678,0 -0.498615,-0.21894 -0.498614,-0.49861 v -1.51601 z m -4.6585018,-0.003 v 2.84737 c -2.4e-6,0.63945 0.5248558,1.16755 1.1643004,1.16755 h 9.3196044 c 1.282817,0 2.329254,-1.04904 2.329251,-2.33186 v -3.71913 c 0.386022,-0.13812 0.665686,-0.50813 0.665686,-0.93937 v -3.32908 c -3e-6,-0.33804 -0.260779,-0.62265 -0.589626,-0.66113 h -0.817807 c -0.328925,0.0385 -0.590271,0.32309 -0.590276,0.66113 v 3.32908 c 0,0.43053 0.280456,0.80006 0.666337,0.93872 v 3.71978 c 1e-6,0.92306 -0.740512,1.66617 -1.663565,1.66617 H 6.9619293 c -0.2796763,0 -0.4986158,-0.22219 -0.4986145,-0.50186 v -2.84478 z m 2.6633938,-6.66337 c -0.2484071,0 -0.4375066,0.17846 -0.4375066,0.43491 v 1.5433 c 0.1411378,0.0287 0.2876573,0.0442 0.4375066,0.0442 0.1491466,0 0.2944499,-0.0151 0.4349063,-0.0435 v -1.54394 c 0,-0.2675 -0.1864993,-0.43491 -0.4349063,-0.43491 z m -1.99641,5.15126 c -0.00313,-0.11158 0.049834,-0.21722 0.1410685,-0.28148 0.2157521,-0.15045 0.3562465,-0.39803 0.3562478,-0.68323 -6.2e-6,-0.46349 -0.3666624,-0.83276 -0.8301574,-0.83276 -0.00725,0 -0.014259,-1.8e-4 -0.021451,0 h -10e-7 c -0.4532889,0.0113 -0.8112985,0.3765 -0.8113049,0.83276 1.4e-6,0.28465 0.1400897,0.5319 0.3562462,0.68323 0.087931,0.0623 0.1402571,0.16332 0.1404182,0.27109 l 0.00196,0.70925 c 5.56e-5,0.096 0.071061,0.16706 0.1670579,0.16706 h 0.3341431 c 0.095862,0 0.164469,-0.0712 0.1644714,-0.16706 z m 4.658502,0 c -0.0031,-0.11158 0.04983,-0.21722 0.141068,-0.28148 0.21575,-0.15045 0.356245,-0.39803 0.356246,-0.68323 -6e-6,-0.46349 -0.366662,-0.83276 -0.830157,-0.83276 -0.463494,0 -0.8327492,0.36927 -0.8327556,0.83276 1.3e-6,0.28465 0.1400896,0.5319 0.3562456,0.68323 0.08793,0.0623 0.140258,0.16332 0.140419,0.27109 l 0.002,0.70925 c 5.5e-5,0.096 0.07106,0.16706 0.167058,0.16706 h 0.334143 c 0.09586,0 0.164468,-0.0712 0.164471,-0.16706 z"
       sodipodi:nodetypes="cssccccsscccccsccccscccssccssccssccssccssccccccccccccccscscsccccccccccccsscscscscsscsssccsccccsccsscccccssccsccccsccssccczccscczcccsssscccssccccccscccsscc" />
  </g>
</svg>
